<?xml version="1.0" standalone="no"?><!DOCTYPE svg PUBLIC "-//W3C//DTD SVG 1.1//EN" "http://www.w3.org/Graphics/SVG/1.1/DTD/svg11.dtd"><svg t="1630944004072" class="icon" viewBox="0 0 1024 1024" version="1.1" xmlns="http://www.w3.org/2000/svg" p-id="3216" xmlns:xlink="http://www.w3.org/1999/xlink" width="200" height="200"><defs><style type="text/css"></style></defs><path d="M320 448v128h384v-128c0-70.6 57.4-128 128-128h64c0-106-86-192-192-192H320c-106 0-192 86-192 192h64c70.6 0 128 57.4 128 128z m576-64h-64c-35.4 0-64 28.6-64 64v192H256v-192c0-35.4-28.6-64-64-64H128c-70.6 0-128 57.4-128 128 0 47.2 26 88 64 110.2V864c0 17.6 14.4 32 32 32h128c17.6 0 32-14.4 32-32v-32h512v32c0 17.6 14.4 32 32 32h128c17.6 0 32-14.4 32-32V622.2c38-22.2 64-63 64-110.2 0-70.6-57.4-128-128-128z" fill="#8a8a8a" p-id="3217"></path></svg>